<svg width="50" height="50" viewBox="0 0 50 50" fill="none" xmlns="http://www.w3.org/2000/svg">
<path d="M24.9014 4.16666C13.4681 4.16666 4.16602 13.5125 4.16602 25C4.16602 36.4875 13.5118 45.8333 24.9993 45.8333C36.4868 45.8333 45.8327 36.4875 45.8327 25C45.8327 13.5125 36.4431 4.16666 24.9014 4.16666ZM24.9993 41.6667C15.8098 41.6667 8.33268 34.1896 8.33268 25C8.33268 15.8104 15.7639 8.33332 24.9014 8.33332C34.1473 8.33332 41.666 15.8104 41.666 25C41.666 34.1896 34.1889 41.6667 24.9993 41.6667Z" fill="#78258D"/>
<path d="M22.916 14.5833H27.0827V29.1667H22.916V14.5833ZM22.916 31.25H27.0827V35.4167H22.916V31.25Z" fill="#78258D"/>
</svg>
