<svg width="19" height="18" viewBox="0 0 19 18" fill="none" xmlns="http://www.w3.org/2000/svg">
<path d="M8.84451 0.83037C9.18702 0.0115831 10.3471 0.0115825 10.6896 0.830369L12.5037 5.16701C12.6482 5.51242 12.9735 5.74818 13.3467 5.77794L18.0451 6.15245C18.9334 6.22325 19.2924 7.3328 18.614 7.91058L15.0428 10.9522C14.7562 11.1963 14.631 11.5807 14.7188 11.9468L15.8114 16.5008C16.0187 17.3651 15.0797 18.0502 14.3199 17.5888L10.2861 15.139C9.96718 14.9453 9.56691 14.9453 9.24797 15.139L5.2142 17.5888C4.45444 18.0502 3.51535 17.3651 3.72272 16.5008L4.81525 11.9468C4.90308 11.5807 4.77785 11.1963 4.49125 10.9522L0.920058 7.91058C0.241681 7.3328 0.600737 6.22325 1.489 6.15245L6.18736 5.77794C6.56059 5.74818 6.88594 5.51242 7.03043 5.16701L8.84451 0.83037Z" fill="#FFB800"/>
</svg>
