<svg width="20" height="20" viewBox="0 0 20 20" fill="none" xmlns="http://www.w3.org/2000/svg">
<g clip-path="url(#clip0_96_1171)">
<path d="M17.802 12.2982C17.802 12.2982 19.419 13.8952 19.819 14.6342C19.8267 14.6449 19.8328 14.6567 19.837 14.6692C20 14.9422 20.04 15.1562 19.96 15.3142C19.825 15.5752 19.368 15.7062 19.213 15.7172H16.355C16.156 15.7172 15.742 15.6652 15.238 15.3172C14.853 15.0482 14.47 14.6052 14.099 14.1722C13.545 13.5292 13.066 12.9712 12.581 12.9712C12.5197 12.9711 12.4589 12.9812 12.401 13.0012C12.034 13.1172 11.568 13.6402 11.568 15.0332C11.568 15.4692 11.224 15.7172 10.983 15.7172H9.67397C9.22797 15.7172 6.90597 15.5612 4.84697 13.3902C2.32397 10.7322 0.057968 5.4002 0.035968 5.3532C-0.105032 5.0082 0.190968 4.8202 0.510968 4.8202H3.39697C3.78397 4.8202 3.90997 5.0542 3.99797 5.2642C4.09997 5.5052 4.47797 6.4692 5.09797 7.5522C6.10197 9.3142 6.71897 10.0312 7.21197 10.0312C7.30459 10.0315 7.39565 10.0073 7.47597 9.9612C8.11997 9.6072 7.99997 7.3072 7.96997 6.8332C7.96997 6.7412 7.96897 5.8062 7.63897 5.3542C7.40297 5.0302 7.00097 4.9042 6.75797 4.8582C6.82297 4.7642 6.96097 4.6202 7.13797 4.5352C7.57897 4.3152 8.37597 4.2832 9.16697 4.2832H9.60597C10.464 4.2952 10.686 4.3502 10.998 4.4292C11.626 4.5792 11.638 4.9862 11.583 6.3722C11.567 6.7682 11.55 7.2142 11.55 7.7392C11.55 7.8512 11.545 7.9762 11.545 8.1032C11.526 8.8142 11.501 9.6152 12.003 9.9442C12.0681 9.98476 12.1433 10.0062 12.22 10.0062C12.394 10.0062 12.915 10.0062 14.328 7.5812C14.948 6.5102 15.428 5.2472 15.461 5.1522C15.489 5.0992 15.573 4.9502 15.675 4.8902C15.7475 4.8516 15.8288 4.83231 15.911 4.8342H19.306C19.676 4.8342 19.927 4.8902 19.976 5.0302C20.058 5.2572 19.96 5.9502 18.41 8.0462C18.149 8.3952 17.92 8.6972 17.719 8.9612C16.314 10.8052 16.314 10.8982 17.802 12.2982Z" fill="white"/>
</g>
<defs>
<clipPath id="clip0_96_1171">
<rect width="20" height="20" fill="white"/>
</clipPath>
</defs>
</svg>
