<svg width="48" height="48" viewBox="0 0 48 48" fill="none" xmlns="http://www.w3.org/2000/svg">
<path d="M10 23.44C10 17.1043 10 13.9365 11.9682 11.9682C13.9365 10 17.1043 10 23.44 10H24.56C30.8957 10 34.0635 10 36.0318 11.9682C38 13.9365 38 17.1043 38 23.44V24.56C38 30.8957 38 34.0635 36.0318 36.0318C34.0635 38 30.8957 38 24.56 38H23.44C17.1043 38 13.9365 38 11.9682 36.0318C10 34.0635 10 30.8957 10 24.56V23.44Z" fill="#0077FF"/>
<path d="M24.8984 30.1716C18.5167 30.1716 14.8768 25.7966 14.7251 18.5166H17.9218C18.0268 23.8599 20.3834 26.1233 22.25 26.5899V18.5166H25.2602V23.1249C27.1035 22.9266 29.0399 20.8266 29.6933 18.5166H32.7033C32.2016 21.3633 30.1016 23.4633 28.6083 24.3266C30.1016 25.0266 32.4934 26.8583 33.4034 30.1716H30.09C29.3783 27.9549 27.6052 26.2399 25.2602 26.0066V30.1716H24.8984Z" fill="white"/>
</svg>
