<svg width="28" height="29" viewBox="0 0 28 29" fill="none" xmlns="http://www.w3.org/2000/svg">
<path d="M28 14.4285C28 6.69648 21.732 0.428467 14 0.428467C6.26801 0.428467 0 6.69648 0 14.4285C0 22.1605 6.26801 28.4285 14 28.4285C21.732 28.4285 28 22.1605 28 14.4285Z" fill="#FC3F1D"/>
<path d="M15.9729 22.8425H18.8977V6.04248H14.6433C10.3647 6.04248 8.11667 8.24223 8.11667 11.4814C8.11667 14.0679 9.34948 15.5907 11.5492 17.1619L7.72992 22.8425H10.8966L15.151 16.4851L13.6764 15.494C11.8877 14.2853 11.0175 13.3427 11.0175 11.3121C11.0175 9.52335 12.2744 8.31468 14.6675 8.31468H15.9729V22.8425Z" fill="white"/>
</svg>
